<?xml version="1.0" encoding="UTF-8"?> <!-- Generator: Adobe Illustrator 22.0.1, SVG Export Plug-In . SVG Version: 6.00 Build 0) --> <svg xmlns="http://www.w3.org/2000/svg" xmlns:xlink="http://www.w3.org/1999/xlink" x="0px" y="0px" viewBox="0 0 211.7 112.5" style="enable-background:new 0 0 211.7 112.5;" xml:space="preserve"> <style type="text/css"> .st0{fill:#041E42;stroke:#041E42;} .st1{fill:#0047BB;stroke:#0047BB;} </style> <g id="xdh"> </g> <g id="Layer_1"> <path class="st0" d="M86.5,40.5c2.3,1.6,4.1,3.8,5.3,6.6c1.2,2.8,1.8,5.9,1.8,9.3c0,5.1-1.5,9.4-4.4,13c-2.9,3.6-7,5.3-12.1,5.3 c-3.7,0-7.4-0.6-11.2-1.7V43.5c4.2-3.6,8.2-5.4,12.2-5.4C81.4,38.1,84.2,38.9,86.5,40.5z M55.4,80.7c6.7,2.6,13.5,4,20.3,4 c5.6,0,10.6-1.1,14.9-3.4c4.4-2.2,7.7-5.5,10.1-9.9c2.4-4.3,3.6-9.5,3.6-15.6c0-4.8-0.9-9.3-2.6-13.5c-1.7-4.2-4.4-7.6-7.9-10.2 c-3.5-2.6-7.9-3.9-13-3.9c-3.1,0-5.8,0.4-7.9,1.2c-2.2,0.8-4.5,2-7,3.7V6L55.4,1.2V80.7z"></path> <path class="st0" d="M117.2,6.4c1.8,0,3.3,0.5,4.5,1.6s1.9,2.6,1.9,4.7c0,2-0.6,3.5-1.8,4.7c-1.2,1.1-2.7,1.7-4.4,1.7 c-1.7,0-3.2-0.6-4.5-1.8c-1.3-1.2-1.9-2.7-1.9-4.5c0-1.7,0.6-3.2,1.7-4.4C113.9,7.1,115.4,6.4,117.2,6.4z M112.1,29.3h10.8v63.1 c0,9.1-3.6,15.4-10.9,18.9l-7.9-7.7c2.6-1,4.6-2.6,6-4.7c1.3-2.1,2-4.6,2-7.3V29.3z"></path> <path class="st0" d="M149,28.3c3.2,0,6,0.3,8.3,1c2.3,0.7,4.9,1.8,7.9,3.3v10.6c-6.4-3.9-11.5-5.8-15.3-5.8c-1.8,0-3.4,0.4-4.9,1.1 c-1.5,0.8-2.3,2-2.3,3.7c0,1.4,0.6,2.7,1.9,3.9c1.3,1.2,3,2.4,5.1,3.5c2.1,1.2,4.2,2.3,6.4,3.6c7.8,4.5,11.7,9.9,11.7,16.1 c0,4.8-1.8,8.6-5.4,11.3c-3.6,2.7-8,4.1-13.3,4.1c-1.9,0-3.6-0.1-5.2-0.4c-1.6-0.3-3-0.6-4.2-1c-1.2-0.4-2.8-1-4.7-1.8 c-1.9-0.8-3.2-1.4-3.8-1.6V68.3c3,1.9,6.1,3.6,9.5,5c3.4,1.4,6,2.1,7.8,2.1c1.8,0,3.7-0.5,5.5-1.6c1.8-1,2.7-2.4,2.7-4.1 c0-1.1-0.3-2.1-0.9-3c-0.6-0.9-1.3-1.7-2.3-2.4c-1-0.7-2.3-1.6-4-2.6c-1.7-1-3.9-2.3-6.6-3.8c-4-2.4-6.9-4.8-8.7-7.2 c-1.8-2.4-2.7-5.3-2.7-8.4c0-4.4,1.7-7.9,5-10.4C139.9,29.6,144.1,28.3,149,28.3z"></path> <path class="st0" d="M191.6,28.3c3.2,0,6,0.3,8.3,1c2.3,0.7,4.9,1.8,7.9,3.3v10.6c-6.4-3.9-11.5-5.8-15.3-5.8 c-1.8,0-3.4,0.4-4.9,1.1c-1.5,0.8-2.3,2-2.3,3.7c0,1.4,0.6,2.7,1.9,3.9c1.3,1.2,3,2.4,5.1,3.5c2.1,1.2,4.2,2.3,6.4,3.6 c7.8,4.5,11.7,9.9,11.7,16.1c0,4.8-1.8,8.6-5.4,11.3c-3.6,2.7-8,4.1-13.3,4.1c-1.9,0-3.6-0.1-5.2-0.4c-1.6-0.3-3-0.6-4.2-1 c-1.2-0.4-2.8-1-4.7-1.8c-1.9-0.8-3.2-1.4-3.8-1.6V68.3c3,1.9,6.1,3.6,9.5,5c3.4,1.4,6,2.1,7.8,2.1c1.8,0,3.7-0.5,5.5-1.6 c1.8-1,2.7-2.4,2.7-4.1c0-1.1-0.3-2.1-0.9-3c-0.6-0.9-1.3-1.7-2.3-2.4c-1-0.7-2.3-1.6-4-2.6c-1.7-1-3.9-2.3-6.6-3.8 c-4-2.4-6.9-4.8-8.7-7.2c-1.8-2.4-2.7-5.3-2.7-8.4c0-4.4,1.7-7.9,5-10.4C182.5,29.6,186.6,28.3,191.6,28.3z"></path> <path class="st1" d="M44.4,33.2c-0.8-4.4-1.3-9-1.3-13.7c0-4.3,1.1-12.1,1.4-13.9l-9.8-4.4c-1.4,5.9-2.3,12-2.3,18.3 c0,6.3,0.8,12.3,2.3,18.1L44.4,33.2z"></path> <path class="st1" d="M28.8,33.2c-0.8-4.4-1.3-9-1.3-13.7c0-4.3,1.1-12.1,1.4-13.9l-9.8-4.4c-1.4,5.9-2.3,12-2.3,18.3 c0,6.3,0.8,12.3,2.3,18.1L28.8,33.2z"></path> <path class="st1" d="M13.2,33.2c-0.8-4.4-1.3-9-1.3-13.7c0-4.3,1.1-12.1,1.4-13.9L3.5,1.2c-1.4,5.9-2.3,12-2.3,18.3 c0,6.3,0.8,12.3,2.3,18.1L13.2,33.2z"></path> </g> </svg> 